
<svg width="20" height="16" xmlns="http://www.w3.org/2000/svg" viewBox="0 0 639.16 639.16"><path class="cls-2" d="M488.74,214.68c-10.6,4.79-22.33,7.71-33.77,9.63,5.43-.92,13.41-10.75,16.61-14.72a62,62,0,0,0,11.2-20.44c.3-.58.51-1.32-.07-1.76a1.93,1.93,0,0,0-1.79.15,172.22,172.22,0,0,1-40,15.32,2.68,2.68,0,0,1-2.76-.73,34,34,0,0,0-3.5-3.58,70.71,70.71,0,0,0-19.4-11.88,67.37,67.37,0,0,0-29.74-4.79,71.12,71.12,0,0,0-28.22,8,72.87,72.87,0,0,0-22.77,18.59,69.87,69.87,0,0,0-13.59,27.23c-2.35,9.59-2.15,19.07-.72,28.75.21,1.61.07,1.83-1.39,1.61-55-8.18-100.57-27.86-137.57-70-1.61-1.84-2.48-1.84-3.8.14-16.19,24.27-8.33,63.26,11.9,82.42,2.69,2.56,5.47,5.11,8.45,7.44-1.09.23-14.55-1.23-26.54-7.44-1.61-1-2.42-.43-2.56,1.39a41.81,41.81,0,0,0,.44,7.88c3.1,24.6,20.14,47.36,43.47,56.24a41.17,41.17,0,0,0,8.83,2.7c-5.32,1.16-10.8,2-26,.8-1.9-.36-2.62.59-1.9,2.41,11.46,31.23,36.19,40.52,54.71,45.81,2.48.43,5,.43,7.44,1-.15.22-.29.22-.44.43-6.14,9.37-27.44,16.34-37.36,19.81-18,6.3-37.68,9.14-56.74,7.26-3.05-.45-3.69-.42-4.52,0s-.1,1.24.88,2c3.87,2.55,7.8,4.81,11.82,7a187.38,187.38,0,0,0,37.92,15.18c68.17,18.82,145,5,196.13-45.86,40.19-39.94,54.28-95,54.28-150.15,0-2.16,2.55-3.35,4.06-4.49,10.46-7.85,18.89-17.25,26.69-27.75a8.4,8.4,0,0,0,1.77-5.32v-.29C490.11,213.8,490.1,214.06,488.74,214.68Z" fill="white" fill-rule="evenodd"/></svg>